<?xml version="1.0" standalone="no"?>
<!DOCTYPE svg PUBLIC "-//W3C//DTD SVG 20010904//EN"
 "http://www.w3.org/TR/2001/REC-SVG-20010904/DTD/svg10.dtd">
<!-- Uploaded to: SVG Repo, www.svgrepo.com, Generator: SVG Repo Mixer Tools -->
<svg version="1.0" xmlns="http://www.w3.org/2000/svg"
 width="1258.000000pt" height="1280.000000pt" viewBox="0 0 1258.000000 1280.000000"
 preserveAspectRatio="xMidYMid meet">
<g transform="translate(0.000000,1280.000000) scale(0.100000,-0.100000)"
fill="#FFD700" stroke="none">
<path d="M2831 12743 c-17 -35 -293 -723 -426 -1065 l-57 -147 -42 -5 c-22 -3
-322 -10 -666 -16 -344 -7 -626 -13 -628 -15 -2 -2 113 -96 255 -211 418 -336
674 -556 709 -609 14 -22 14 -34 -6 -137 -29 -156 -65 -294 -185 -723 -127
-455 -127 -456 -122 -462 10 -10 41 9 511 316 425 278 647 411 685 411 49 0
183 -79 752 -441 224 -143 411 -259 417 -259 22 0 -36 216 -168 625 -106 326
-179 572 -187 630 -5 39 -3 43 41 82 26 23 167 133 314 244 462 351 652 504
652 525 0 21 -86 24 -702 30 -433 4 -600 9 -606 17 -5 7 -75 184 -156 394 -81
211 -176 452 -211 537 -64 154 -141 316 -150 316 -2 0 -13 -17 -24 -37z"/>
<path d="M7510 11885 c0 -14 40 -51 270 -251 159 -138 674 -651 811 -809 390
-446 709 -903 953 -1365 450 -853 676 -1689 676 -2505 0 -552 -80 -956 -282
-1430 -68 -159 -183 -393 -254 -516 -63 -108 -190 -279 -208 -279 -8 0 -36 24
-63 54 -26 30 -183 197 -348 372 -525 558 -1684 1807 -2030 2189 -362 399
-502 585 -478 635 9 21 200 183 1011 859 326 271 592 497 590 502 -10 26 -634
689 -650 689 -5 0 -91 -40 -191 -89 -283 -140 -553 -240 -746 -278 -158 -31
-378 -17 -750 47 -63 11 -119 16 -125 13 -33 -20 -974 -794 -2284 -1881 -725
-601 -811 -675 -800 -691 34 -46 1124 -1400 1147 -1424 l27 -27 64 53 c470
385 740 602 855 689 163 121 331 241 361 256 19 10 40 -8 215 -186 724 -732
1798 -1882 2458 -2632 85 -96 166 -187 179 -202 34 -38 23 -48 -104 -98 -213
-83 -494 -145 -773 -171 -192 -17 -641 -6 -836 20 -491 66 -910 183 -1343 372
-427 187 -705 375 -1252 845 -203 175 -309 261 -385 316 -98 69 -50 94 -457
-239 -609 -498 -2164 -1797 -2665 -2225 l-93 -79 37 -72 c66 -133 219 -350
412 -587 167 -205 734 -870 741 -870 11 0 312 221 550 404 304 234 498 392
1175 960 346 290 640 535 653 543 15 11 26 12 35 5 127 -101 595 -449 692
-514 306 -204 677 -401 990 -526 1050 -419 2175 -464 3205 -130 183 59 313
111 617 247 150 66 277 121 282 121 11 0 169 -172 626 -680 176 -195 391 -434
479 -530 220 -241 715 -760 732 -767 38 -14 1271 1108 1322 1203 9 16 -25 57
-225 274 -345 373 -562 614 -894 990 -544 618 -529 600 -529 631 0 62 47 163
279 594 281 524 466 1115 541 1729 208 1698 -405 3482 -1659 4833 -276 297
-695 646 -1090 908 -408 270 -785 462 -1266 645 -152 58 -205 72 -205 55z"/>
</g>
</svg>